<svg width="68" height="21" viewBox="0 0 68 21" fill="none" xmlns="http://www.w3.org/2000/svg">
<path d="M21.096 0.539999V20H17.904V6.672L11.968 20H9.756L3.792 6.672V20H0.6V0.539999H4.044L10.876 15.8L17.68 0.539999H21.096ZM28.4554 0.539999V12.944C28.4554 14.4187 28.8381 15.5293 29.6034 16.276C30.3874 17.0227 31.4701 17.396 32.8514 17.396C34.2514 17.396 35.3341 17.0227 36.0994 16.276C36.8834 15.5293 37.2754 14.4187 37.2754 12.944V0.539999H40.4674V12.888C40.4674 14.4747 40.1221 15.8187 39.4314 16.92C38.7407 18.0213 37.8167 18.8427 36.6594 19.384C35.5021 19.9253 34.2234 20.196 32.8234 20.196C31.4234 20.196 30.1447 19.9253 28.9874 19.384C27.8487 18.8427 26.9434 18.0213 26.2714 16.92C25.5994 15.8187 25.2634 14.4747 25.2634 12.888V0.539999H28.4554ZM56.3554 16.024H48.2074L46.8074 20H43.4754L50.4474 0.511999H54.1434L61.1154 20H57.7554L56.3554 16.024ZM55.4594 13.42L52.2954 4.376L49.1034 13.42H55.4594ZM67.3389 0.539999V20H64.1469V0.539999H67.3389Z" fill="white"/>
</svg>
