<svg width="67" height="21" viewBox="0 0 67 21" fill="none" xmlns="http://www.w3.org/2000/svg">
<path d="M20.596 0.539999V20H17.404V6.672L11.468 20H9.256L3.292 6.672V20H0.1V0.539999H3.544L10.376 15.8L17.18 0.539999H20.596ZM27.9554 0.539999V12.944C27.9554 14.4187 28.3381 15.5293 29.1034 16.276C29.8874 17.0227 30.9701 17.396 32.3514 17.396C33.7514 17.396 34.8341 17.0227 35.5994 16.276C36.3834 15.5293 36.7754 14.4187 36.7754 12.944V0.539999H39.9674V12.888C39.9674 14.4747 39.6221 15.8187 38.9314 16.92C38.2407 18.0213 37.3167 18.8427 36.1594 19.384C35.0021 19.9253 33.7234 20.196 32.3234 20.196C30.9234 20.196 29.6447 19.9253 28.4874 19.384C27.3487 18.8427 26.4434 18.0213 25.7714 16.92C25.0994 15.8187 24.7634 14.4747 24.7634 12.888V0.539999H27.9554ZM55.8554 16.024H47.7074L46.3074 20H42.9754L49.9474 0.511999H53.6434L60.6154 20H57.2554L55.8554 16.024ZM54.9594 13.42L51.7954 4.376L48.6034 13.42H54.9594ZM66.8389 0.539999V20H63.6469V0.539999H66.8389Z" fill="#FC552F"/>
</svg>
